<?xml version="1.0" encoding="utf-8"?>
<!-- Generator: Adobe Illustrator 28.2.0, SVG Export Plug-In . SVG Version: 6.00 Build 0)  -->
<svg version="1.1" id="Capa_1" xmlns="http://www.w3.org/2000/svg" xmlns:xlink="http://www.w3.org/1999/xlink" x="0px" y="0px"
	 viewBox="0 0 100 100" style="enable-background:new 0 0 100 100;" xml:space="preserve">
<g>
	<path d="M27.94,49.43c0.27,0.12,0.53,0.23,0.79,0.34c-0.01,0.07-0.01,0.13-0.02,0.2c-0.5,0-0.99,0-1.49,0
		c0.03-0.5-0.1-1.09,0.13-1.48c1.56-2.73,3.88-4.58,6.91-5.42c2.18-0.6,3.9,0.38,4.69,2.5c0.3,0.79,0.47,1.63,0.77,2.42
		c0.51,1.36,1.15,1.8,2.48,1.28c3.01-1.18,5.93-2.58,8.92-3.79c2.24-0.91,4.49-1.9,6.82-2.45c4.62-1.1,9.13-0.26,13.48,1.44
		c2.51,0.98,4.97,2.1,7.41,3.24c4.08,1.9,8.23,2.13,12.48,0.67c0.5-0.17,1.02-0.29,1.66-0.26c-0.36,0.28-0.71,0.6-1.09,0.85
		c-3.5,2.18-7.29,2.73-11.23,1.69c-2.75-0.73-5.47-1.64-8.11-2.69c-6.46-2.57-12.77-2.27-19.1,0.44c-3.11,1.33-6.32,2.44-9.5,3.6
		c-0.67,0.24-1.43,0.3-2.16,0.34c-2.18,0.12-3.7-0.95-4.35-3.04c-0.26-0.84-0.42-1.72-0.65-2.57c-0.4-1.45-1.13-1.9-2.55-1.66
		C32.24,45.43,29.05,47.62,27.94,49.43z"/>
	<path d="M19.41,48.82c2.45-1.36,4.68-2.95,6.17-5.35c0.51-0.82,0.19-1.44-0.7-1.43c-1.24,0-2.56,0.03-3.72,0.42
		c-5.13,1.71-9.15,4.85-11.77,9.65c-0.16,0.29-0.35,0.57-0.52,0.86c-0.13-0.06-0.25-0.12-0.38-0.18c0.67-1.51,1.16-3.14,2.06-4.5
		c2.71-4.13,6.48-6.98,11.24-8.39c1.15-0.34,2.44-0.42,3.65-0.33c2.48,0.18,3.69,2.38,2.55,4.59c-0.43,0.84-0.99,1.71-1.72,2.29
		c-1.86,1.48-3.83,2.82-5.8,4.16c-0.49,0.34-1.13,0.58-1.72,0.63c-0.55,0.05-1.38-0.04-1.63-0.4c-0.24-0.34-0.04-1.17,0.21-1.65
		c0.37-0.69,0.96-1.25,1.56-2c-1.12,0-2.07,0-3.03,0c0-0.05,0.01-0.1,0.01-0.16c1.05-0.3,2.1-0.67,3.17-0.88
		c0.46-0.09,0.98,0.13,1.48,0.21c-0.1,0.46-0.14,0.96-0.33,1.38C20.01,48.13,19.67,48.46,19.41,48.82z"/>
</g>
</svg>
