<?xml version="1.0" encoding="utf-8"?>
<!-- Generator: Adobe Illustrator 16.0.0, SVG Export Plug-In . SVG Version: 6.00 Build 0)  -->
<!DOCTYPE svg PUBLIC "-//W3C//DTD SVG 1.1//EN" "http://www.w3.org/Graphics/SVG/1.1/DTD/svg11.dtd">
<svg version="1.1" id="Capa_1" xmlns="http://www.w3.org/2000/svg" xmlns:xlink="http://www.w3.org/1999/xlink" x="0px" y="0px"
	 width="400px" height="100px" viewBox="0 0 400 100" enable-background="new 0 0 400 100" xml:space="preserve">
<g>
	<path fill-rule="evenodd" clip-rule="evenodd" fill="#766661" d="M349.443,45.875l29.406-29.039h-10.331l-39.013,38.485V16.836
		h-14.318l0.014,1.084l2.463,5.916l0.014,59.337h11.828l0.006-17.684l12.021-11.949l21.271,24.59
		c2.849,3.293,6.989,5.186,11.344,5.186l7.67-0.016L349.443,45.875z"/>
	<path fill-rule="evenodd" clip-rule="evenodd" fill="#766661" d="M70.697,44.613c0.421-0.218,0.828-0.462,1.219-0.73
		c1.274-0.868,2.372-1.967,3.241-3.24c0.797-1.216,1.35-2.574,1.63-4c0.249-1.319,0.376-2.658,0.379-4
		c0.024-2.029-0.336-4.044-1.059-5.94c-0.828-2.15-2.316-3.981-4.25-5.23c-2.519-1.744-5.373-2.946-8.381-3.53
		c-4.528-0.928-9.147-1.344-13.77-1.24H18.182l0.013,1.1l2.456,5.9l0.007,59.46h29.008c4.89,0.088,9.774-0.348,14.571-1.301
		c3.535-0.676,6.904-2.035,9.92-4c2.468-1.648,4.42-3.959,5.63-6.67c1.151-2.857,1.706-5.92,1.629-9
		c0.143-4.225-1.043-8.385-3.389-11.9C76.157,47.757,73.619,45.79,70.697,44.613 M50.153,23.703c2.937-0.079,5.873,0.197,8.736,0.82
		c1.576,0.327,3.042,1.014,4.267,2c0.824,0.639,1.41,1.508,1.674,2.479c0.256,1.117,0.384,2.257,0.384,3.4
		c-0.001,1.18-0.137,2.356-0.405,3.51c-0.269,0.987-0.854,1.873-1.675,2.54c-1.232,0.975-2.695,1.661-4.266,2
		c-2.856,0.641-5.791,0.917-8.726,0.82c-1.887-0.034-3.774,0.033-5.654,0.2c-1.854,0.119-3.699,0.34-5.525,0.66
		c-1.774,0.329-3.513,0.807-5.195,1.43c-0.438,0.13-0.875,0.29-1.301,0.46l-0.022-20.32H50.153z M65.684,72.903
		c-2.763,2.068-7.712,3.229-15.563,3.229H32.445V54.522c-0.045-0.535,0.032-1.074,0.227-1.58c0.196-0.504,0.504-0.965,0.904-1.35
		c1.129-0.887,2.45-1.532,3.872-1.89c1.936-0.602,3.941-0.985,5.974-1.14c2.219-0.167,4.458-0.253,6.72-0.26
		c7.712,0,12.8,1.23,15.542,3.39c2.741,2.16,4.363,5.519,4.363,10.57S68.425,70.772,65.684,72.903"/>
	<polygon fill-rule="evenodd" clip-rule="evenodd" fill="#766661" points="220.66,64.093 179.99,16.703 166.016,16.703 
		166.016,17.786 168.479,23.703 168.479,83.212 175.43,83.212 175.43,29.823 221.599,83.183 227.599,83.183 227.599,16.703 
		220.66,16.703 	"/>
	<path fill-rule="evenodd" clip-rule="evenodd" fill="#766661" d="M118.519,16.684l-3.32,0.01v1.11l1.16,2.31l-26.16,63.049h7.5
		l5.59-13.219c0.77,0.369,1.62,0.619,2.45,0.82c1.66,0.34,3.35,0.5,5.05,0.469c1.83-0.049,3.67-0.24,5.479-0.561
		c0.83-0.18,1.67-0.359,2.5-0.549c1.021-0.23,2.04-0.461,3.03-0.67c1.79-0.371,3.55-0.711,5.28-1c1.56-0.32,3.15-0.49,4.75-0.5
		c1.39-0.061,2.78,0.08,4.14,0.41c0.73,0.15,1.43,0.439,2.06,0.83l1.98,4.75c2.33,5.59,7.79,9.24,13.85,9.229h2.38l-23.84-57.259
		C130.069,20.314,124.589,16.674,118.519,16.684 M129.299,61.903c-3,0.42-6.05,0.961-9.17,1.621c-1.38,0.309-2.81,0.58-4.18,0.84
		c-0.27,0.059-0.55,0.109-0.82,0.16c-1.53,0.27-3.07,0.449-4.61,0.52c-1.2,0.061-2.78-0.16-3.68-0.35
		c-0.44-0.09-0.78-0.211-1.15-0.4l15.27-36.1l13.98,33.559C133.049,61.563,131.169,61.614,129.299,61.903"/>
	<path fill-rule="evenodd" clip-rule="evenodd" fill="#766661" d="M267.693,16.684l-3.32,0.01v1.11l1.161,2.31l-26.161,63.049h7.5
		l5.591-13.219c0.77,0.369,1.62,0.619,2.449,0.82c1.661,0.34,3.351,0.5,5.051,0.469c1.829-0.049,3.67-0.24,5.479-0.561
		c0.83-0.18,1.67-0.359,2.5-0.549c1.021-0.23,2.04-0.461,3.03-0.67c1.79-0.371,3.55-0.711,5.28-1c1.56-0.32,3.149-0.49,4.75-0.5
		c1.39-0.061,2.78,0.08,4.14,0.41c0.729,0.15,1.431,0.439,2.06,0.83l1.98,4.75c2.33,5.59,7.79,9.24,13.851,9.229h2.379
		l-23.839-57.259C279.244,20.314,273.763,16.674,267.693,16.684 M278.473,61.903c-3,0.42-6.05,0.961-9.17,1.621
		c-1.38,0.309-2.81,0.58-4.181,0.84c-0.27,0.059-0.549,0.109-0.819,0.16c-1.53,0.27-3.07,0.449-4.61,0.52
		c-1.199,0.061-2.78-0.16-3.68-0.35c-0.439-0.09-0.78-0.211-1.15-0.4l15.271-36.1l13.979,33.559
		C282.223,61.563,280.343,61.614,278.473,61.903"/>
</g>
</svg>
